<?xml version="1.0" encoding="utf-8"?>
<svg version="1.1" xmlns:xlink="http://www.w3.org/1999/xlink" width="12px" height="12px" viewBox="1088 696  12 12" xmlns="http://www.w3.org/2000/svg">
  <path d="M 1094 696  C 1097.36 696  1100 698.64  1100 702  C 1100 705.36  1097.36 708  1094 708  C 1090.64 708  1088 705.36  1088 702  C 1088 698.64  1090.64 696  1094 696  Z " fill-rule="nonzero" fill="#f0f0f0" stroke="none" />
  <path d="M 1094 696.5  C 1097.08 696.5  1099.5 698.92  1099.5 702  C 1099.5 705.08  1097.08 707.5  1094 707.5  C 1090.92 707.5  1088.5 705.08  1088.5 702  C 1088.5 698.92  1090.92 696.5  1094 696.5  Z " stroke-width="1" stroke="#797979" fill="none" />
  <path d="M 1094 705  C 1092.32 705  1091 703.68  1091 702  C 1091 700.32  1092.32 699  1094 699  C 1095.68 699  1097 700.32  1097 702  C 1097 703.68  1095.68 705  1094 705  " fill-rule="nonzero" fill="#797979" stroke="none" />
</svg>