<?xml version="1.0" encoding="utf-8"?>
<svg version="1.1" xmlns:xlink="http://www.w3.org/1999/xlink" width="12px" height="12px" viewBox="603 1642  12 12" xmlns="http://www.w3.org/2000/svg">
  <path d="M 609 1642  C 612.36 1642  615 1644.64  615 1648  C 615 1651.36  612.36 1654  609 1654  C 605.64 1654  603 1651.36  603 1648  C 603 1644.64  605.64 1642  609 1642  Z " fill-rule="nonzero" fill="#ffffff" stroke="none" />
  <path d="M 609 1642.5  C 612.08 1642.5  614.5 1644.92  614.5 1648  C 614.5 1651.08  612.08 1653.5  609 1653.5  C 605.92 1653.5  603.5 1651.08  603.5 1648  C 603.5 1644.92  605.92 1642.5  609 1642.5  Z " stroke-width="1" stroke="#797979" fill="none" />
  <path d="M 609 1651  C 607.32 1651  606 1649.68  606 1648  C 606 1646.32  607.32 1645  609 1645  C 610.68 1645  612 1646.32  612 1648  C 612 1649.68  610.68 1651  609 1651  " fill-rule="nonzero" fill="#797979" stroke="none" />
</svg>