<?xml version="1.0" encoding="utf-8"?>
<svg version="1.1" xmlns:xlink="http://www.w3.org/1999/xlink" width="12px" height="12px" viewBox="986 854  12 12" xmlns="http://www.w3.org/2000/svg">
  <path d="M 992 854  C 995.36 854  998 856.64  998 860  C 998 863.36  995.36 866  992 866  C 988.64 866  986 863.36  986 860  C 986 856.64  988.64 854  992 854  Z " fill-rule="nonzero" fill="#ffffff" stroke="none" />
  <path d="M 992 854.5  C 995.08 854.5  997.5 856.92  997.5 860  C 997.5 863.08  995.08 865.5  992 865.5  C 988.92 865.5  986.5 863.08  986.5 860  C 986.5 856.92  988.92 854.5  992 854.5  Z " stroke-width="1" stroke="#797979" fill="none" />
  <path d="M 992 863  C 990.32 863  989 861.68  989 860  C 989 858.32  990.32 857  992 857  C 993.68 857  995 858.32  995 860  C 995 861.68  993.68 863  992 863  " fill-rule="nonzero" fill="#797979" stroke="none" />
</svg>