<?xml version="1.0" encoding="utf-8"?>
<svg version="1.1" xmlns:xlink="http://www.w3.org/1999/xlink" width="12px" height="12px" viewBox="601 1800  12 12" xmlns="http://www.w3.org/2000/svg">
  <path d="M 607 1800  C 610.36 1800  613 1802.64  613 1806  C 613 1809.36  610.36 1812  607 1812  C 603.64 1812  601 1809.36  601 1806  C 601 1802.64  603.64 1800  607 1800  Z " fill-rule="nonzero" fill="#f0f0f0" stroke="none" />
  <path d="M 607 1800.5  C 610.08 1800.5  612.5 1802.92  612.5 1806  C 612.5 1809.08  610.08 1811.5  607 1811.5  C 603.92 1811.5  601.5 1809.08  601.5 1806  C 601.5 1802.92  603.92 1800.5  607 1800.5  Z " stroke-width="1" stroke="#797979" fill="none" />
  <path d="M 607 1809  C 605.32 1809  604 1807.68  604 1806  C 604 1804.32  605.32 1803  607 1803  C 608.68 1803  610 1804.32  610 1806  C 610 1807.68  608.68 1809  607 1809  " fill-rule="nonzero" fill="#797979" stroke="none" />
</svg>