<?xml version="1.0" encoding="utf-8"?>
<svg version="1.1" xmlns:xlink="http://www.w3.org/1999/xlink" width="12px" height="12px" viewBox="701 1800  12 12" xmlns="http://www.w3.org/2000/svg">
  <path d="M 707 1800  C 710.36 1800  713 1802.64  713 1806  C 713 1809.36  710.36 1812  707 1812  C 703.64 1812  701 1809.36  701 1806  C 701 1802.64  703.64 1800  707 1800  Z " fill-rule="nonzero" fill="#f0f0f0" stroke="none" />
  <path d="M 707 1800.5  C 710.08 1800.5  712.5 1802.92  712.5 1806  C 712.5 1809.08  710.08 1811.5  707 1811.5  C 703.92 1811.5  701.5 1809.08  701.5 1806  C 701.5 1802.92  703.92 1800.5  707 1800.5  Z " stroke-width="1" stroke="#797979" fill="none" />
  <path d="M 707 1809  C 705.32 1809  704 1807.68  704 1806  C 704 1804.32  705.32 1803  707 1803  C 708.68 1803  710 1804.32  710 1806  C 710 1807.68  708.68 1809  707 1809  " fill-rule="nonzero" fill="#797979" stroke="none" />
</svg>