<?xml version="1.0" encoding="utf-8"?>
<svg version="1.1" xmlns:xlink="http://www.w3.org/1999/xlink" width="12px" height="12px" viewBox="3597 696  12 12" xmlns="http://www.w3.org/2000/svg">
  <path d="M 3603 696  C 3606.36 696  3609 698.64  3609 702  C 3609 705.36  3606.36 708  3603 708  C 3599.64 708  3597 705.36  3597 702  C 3597 698.64  3599.64 696  3603 696  Z " fill-rule="nonzero" fill="#f0f0f0" stroke="none" />
  <path d="M 3603 696.5  C 3606.08 696.5  3608.5 698.92  3608.5 702  C 3608.5 705.08  3606.08 707.5  3603 707.5  C 3599.92 707.5  3597.5 705.08  3597.5 702  C 3597.5 698.92  3599.92 696.5  3603 696.5  Z " stroke-width="1" stroke="#797979" fill="none" />
  <path d="M 3603 705  C 3601.32 705  3600 703.68  3600 702  C 3600 700.32  3601.32 699  3603 699  C 3604.68 699  3606 700.32  3606 702  C 3606 703.68  3604.68 705  3603 705  " fill-rule="nonzero" fill="#797979" stroke="none" />
</svg>