<?xml version="1.0" encoding="utf-8"?>
<svg version="1.1" xmlns:xlink="http://www.w3.org/1999/xlink" width="12px" height="12px" viewBox="3497 696  12 12" xmlns="http://www.w3.org/2000/svg">
  <path d="M 3503 696  C 3506.36 696  3509 698.64  3509 702  C 3509 705.36  3506.36 708  3503 708  C 3499.64 708  3497 705.36  3497 702  C 3497 698.64  3499.64 696  3503 696  Z " fill-rule="nonzero" fill="#ffffff" stroke="none" />
  <path d="M 3503 696.5  C 3506.08 696.5  3508.5 698.92  3508.5 702  C 3508.5 705.08  3506.08 707.5  3503 707.5  C 3499.92 707.5  3497.5 705.08  3497.5 702  C 3497.5 698.92  3499.92 696.5  3503 696.5  Z " stroke-width="1" stroke="#797979" fill="none" />
  <path d="M 3503 705  C 3501.32 705  3500 703.68  3500 702  C 3500 700.32  3501.32 699  3503 699  C 3504.68 699  3506 700.32  3506 702  C 3506 703.68  3504.68 705  3503 705  " fill-rule="nonzero" fill="#797979" stroke="none" />
</svg>