<?xml version="1.0" encoding="utf-8"?>
<svg version="1.1" xmlns:xlink="http://www.w3.org/1999/xlink" width="12px" height="12px" viewBox="603 425  12 12" xmlns="http://www.w3.org/2000/svg">
  <path d="M 609 425  C 612.36 425  615 427.64  615 431  C 615 434.36  612.36 437  609 437  C 605.64 437  603 434.36  603 431  C 603 427.64  605.64 425  609 425  Z " fill-rule="nonzero" fill="#ffffff" stroke="none" />
  <path d="M 609 425.5  C 612.08 425.5  614.5 427.92  614.5 431  C 614.5 434.08  612.08 436.5  609 436.5  C 605.92 436.5  603.5 434.08  603.5 431  C 603.5 427.92  605.92 425.5  609 425.5  Z " stroke-width="1" stroke="#797979" fill="none" />
  <path d="M 609 434  C 607.32 434  606 432.68  606 431  C 606 429.32  607.32 428  609 428  C 610.68 428  612 429.32  612 431  C 612 432.68  610.68 434  609 434  " fill-rule="nonzero" fill="#797979" stroke="none" />
</svg>