<?xml version="1.0" encoding="utf-8"?>
<svg version="1.1" xmlns:xlink="http://www.w3.org/1999/xlink" width="12px" height="12px" viewBox="703 425  12 12" xmlns="http://www.w3.org/2000/svg">
  <path d="M 709 425  C 712.36 425  715 427.64  715 431  C 715 434.36  712.36 437  709 437  C 705.64 437  703 434.36  703 431  C 703 427.64  705.64 425  709 425  Z " fill-rule="nonzero" fill="#f0f0f0" stroke="none" />
  <path d="M 709 425.5  C 712.08 425.5  714.5 427.92  714.5 431  C 714.5 434.08  712.08 436.5  709 436.5  C 705.92 436.5  703.5 434.08  703.5 431  C 703.5 427.92  705.92 425.5  709 425.5  Z " stroke-width="1" stroke="#797979" fill="none" />
  <path d="M 709 434  C 707.32 434  706 432.68  706 431  C 706 429.32  707.32 428  709 428  C 710.68 428  712 429.32  712 431  C 712 432.68  710.68 434  709 434  " fill-rule="nonzero" fill="#797979" stroke="none" />
</svg>