<?xml version="1.0" encoding="utf-8"?>
<svg version="1.1" xmlns:xlink="http://www.w3.org/1999/xlink" width="12px" height="12px" viewBox="3595 854  12 12" xmlns="http://www.w3.org/2000/svg">
  <path d="M 3601 854  C 3604.36 854  3607 856.64  3607 860  C 3607 863.36  3604.36 866  3601 866  C 3597.64 866  3595 863.36  3595 860  C 3595 856.64  3597.64 854  3601 854  Z " fill-rule="nonzero" fill="#f0f0f0" stroke="none" />
  <path d="M 3601 854.5  C 3604.08 854.5  3606.5 856.92  3606.5 860  C 3606.5 863.08  3604.08 865.5  3601 865.5  C 3597.92 865.5  3595.5 863.08  3595.5 860  C 3595.5 856.92  3597.92 854.5  3601 854.5  Z " stroke-width="1" stroke="#797979" fill="none" />
  <path d="M 3601 863  C 3599.32 863  3598 861.68  3598 860  C 3598 858.32  3599.32 857  3601 857  C 3602.68 857  3604 858.32  3604 860  C 3604 861.68  3602.68 863  3601 863  " fill-rule="nonzero" fill="#797979" stroke="none" />
</svg>