<?xml version="1.0" encoding="utf-8"?>
<svg version="1.1" xmlns:xlink="http://www.w3.org/1999/xlink" width="12px" height="12px" viewBox="701 583  12 12" xmlns="http://www.w3.org/2000/svg">
  <path d="M 707 583  C 710.36 583  713 585.64  713 589  C 713 592.36  710.36 595  707 595  C 703.64 595  701 592.36  701 589  C 701 585.64  703.64 583  707 583  Z " fill-rule="nonzero" fill="#ffffff" stroke="none" />
  <path d="M 707 583.5  C 710.08 583.5  712.5 585.92  712.5 589  C 712.5 592.08  710.08 594.5  707 594.5  C 703.92 594.5  701.5 592.08  701.5 589  C 701.5 585.92  703.92 583.5  707 583.5  Z " stroke-width="1" stroke="#797979" fill="none" />
  <path d="M 707 592  C 705.32 592  704 590.68  704 589  C 704 587.32  705.32 586  707 586  C 708.68 586  710 587.32  710 589  C 710 590.68  708.68 592  707 592  " fill-rule="nonzero" fill="#797979" stroke="none" />
</svg>