<?xml version="1.0" encoding="utf-8"?>
<svg version="1.1" xmlns:xlink="http://www.w3.org/1999/xlink" width="12px" height="12px" viewBox="601 583  12 12" xmlns="http://www.w3.org/2000/svg">
  <path d="M 607 583  C 610.36 583  613 585.64  613 589  C 613 592.36  610.36 595  607 595  C 603.64 595  601 592.36  601 589  C 601 585.64  603.64 583  607 583  Z " fill-rule="nonzero" fill="#f0f0f0" stroke="none" />
  <path d="M 607 583.5  C 610.08 583.5  612.5 585.92  612.5 589  C 612.5 592.08  610.08 594.5  607 594.5  C 603.92 594.5  601.5 592.08  601.5 589  C 601.5 585.92  603.92 583.5  607 583.5  Z " stroke-width="1" stroke="#797979" fill="none" />
  <path d="M 607 592  C 605.32 592  604 590.68  604 589  C 604 587.32  605.32 586  607 586  C 608.68 586  610 587.32  610 589  C 610 590.68  608.68 592  607 592  " fill-rule="nonzero" fill="#797979" stroke="none" />
</svg>