<?xml version="1.0" encoding="utf-8"?>
<svg version="1.1" xmlns:xlink="http://www.w3.org/1999/xlink" width="12px" height="12px" viewBox="701 439  12 12" xmlns="http://www.w3.org/2000/svg">
  <path d="M 707 439  C 710.36 439  713 441.64  713 445  C 713 448.36  710.36 451  707 451  C 703.64 451  701 448.36  701 445  C 701 441.64  703.64 439  707 439  Z " fill-rule="nonzero" fill="#ffffff" stroke="none" />
  <path d="M 707 439.5  C 710.08 439.5  712.5 441.92  712.5 445  C 712.5 448.08  710.08 450.5  707 450.5  C 703.92 450.5  701.5 448.08  701.5 445  C 701.5 441.92  703.92 439.5  707 439.5  Z " stroke-width="1" stroke="#797979" fill="none" />
  <path d="M 707 448  C 705.32 448  704 446.68  704 445  C 704 443.32  705.32 442  707 442  C 708.68 442  710 443.32  710 445  C 710 446.68  708.68 448  707 448  " fill-rule="nonzero" fill="#797979" stroke="none" />
</svg>