<?xml version="1.0" encoding="utf-8"?>
<svg version="1.1" xmlns:xlink="http://www.w3.org/1999/xlink" width="12px" height="12px" viewBox="5155 5863  12 12" xmlns="http://www.w3.org/2000/svg">
  <path d="M 5161 5863  C 5164.36 5863  5167 5865.64  5167 5869  C 5167 5872.36  5164.36 5875  5161 5875  C 5157.64 5875  5155 5872.36  5155 5869  C 5155 5865.64  5157.64 5863  5161 5863  Z " fill-rule="nonzero" fill="#f0f0f0" stroke="none" />
  <path d="M 5161 5863.5  C 5164.08 5863.5  5166.5 5865.92  5166.5 5869  C 5166.5 5872.08  5164.08 5874.5  5161 5874.5  C 5157.92 5874.5  5155.5 5872.08  5155.5 5869  C 5155.5 5865.92  5157.92 5863.5  5161 5863.5  Z " stroke-width="1" stroke="#797979" fill="none" />
  <path d="M 5161 5872  C 5159.32 5872  5158 5870.68  5158 5869  C 5158 5867.32  5159.32 5866  5161 5866  C 5162.68 5866  5164 5867.32  5164 5869  C 5164 5870.68  5162.68 5872  5161 5872  " fill-rule="nonzero" fill="#797979" stroke="none" />
</svg>