<?xml version="1.0" encoding="utf-8"?>
<svg version="1.1" xmlns:xlink="http://www.w3.org/1999/xlink" width="12px" height="12px" viewBox="5255 5863  12 12" xmlns="http://www.w3.org/2000/svg">
  <path d="M 5261 5863  C 5264.36 5863  5267 5865.64  5267 5869  C 5267 5872.36  5264.36 5875  5261 5875  C 5257.64 5875  5255 5872.36  5255 5869  C 5255 5865.64  5257.64 5863  5261 5863  Z " fill-rule="nonzero" fill="#f0f0f0" stroke="none" />
  <path d="M 5261 5863.5  C 5264.08 5863.5  5266.5 5865.92  5266.5 5869  C 5266.5 5872.08  5264.08 5874.5  5261 5874.5  C 5257.92 5874.5  5255.5 5872.08  5255.5 5869  C 5255.5 5865.92  5257.92 5863.5  5261 5863.5  Z " stroke-width="1" stroke="#797979" fill="none" />
  <path d="M 5261 5872  C 5259.32 5872  5258 5870.68  5258 5869  C 5258 5867.32  5259.32 5866  5261 5866  C 5262.68 5866  5264 5867.32  5264 5869  C 5264 5870.68  5262.68 5872  5261 5872  " fill-rule="nonzero" fill="#797979" stroke="none" />
</svg>