<?xml version="1.0" encoding="utf-8"?>
<svg version="1.1" xmlns:xlink="http://www.w3.org/1999/xlink" width="12px" height="12px" viewBox="721 409  12 12" xmlns="http://www.w3.org/2000/svg">
  <path d="M 727 409  C 730.36 409  733 411.64  733 415  C 733 418.36  730.36 421  727 421  C 723.64 421  721 418.36  721 415  C 721 411.64  723.64 409  727 409  Z " fill-rule="nonzero" fill="#ffffff" stroke="none" />
  <path d="M 727 409.5  C 730.08 409.5  732.5 411.92  732.5 415  C 732.5 418.08  730.08 420.5  727 420.5  C 723.92 420.5  721.5 418.08  721.5 415  C 721.5 411.92  723.92 409.5  727 409.5  Z " stroke-width="1" stroke="#797979" fill="none" />
  <path d="M 727 418  C 725.32 418  724 416.68  724 415  C 724 413.32  725.32 412  727 412  C 728.68 412  730 413.32  730 415  C 730 416.68  728.68 418  727 418  " fill-rule="nonzero" fill="#797979" stroke="none" />
</svg>