<?xml version="1.0" encoding="utf-8"?>
<svg version="1.1" xmlns:xlink="http://www.w3.org/1999/xlink" width="12px" height="12px" viewBox="699 597  12 12" xmlns="http://www.w3.org/2000/svg">
  <path d="M 705 597  C 708.36 597  711 599.64  711 603  C 711 606.36  708.36 609  705 609  C 701.64 609  699 606.36  699 603  C 699 599.64  701.64 597  705 597  Z " fill-rule="nonzero" fill="#f0f0f0" stroke="none" />
  <path d="M 705 597.5  C 708.08 597.5  710.5 599.92  710.5 603  C 710.5 606.08  708.08 608.5  705 608.5  C 701.92 608.5  699.5 606.08  699.5 603  C 699.5 599.92  701.92 597.5  705 597.5  Z " stroke-width="1" stroke="#797979" fill="none" />
  <path d="M 705 606  C 703.32 606  702 604.68  702 603  C 702 601.32  703.32 600  705 600  C 706.68 600  708 601.32  708 603  C 708 604.68  706.68 606  705 606  " fill-rule="nonzero" fill="#797979" stroke="none" />
</svg>