<?xml version="1.0" encoding="utf-8"?>
<svg version="1.1" xmlns:xlink="http://www.w3.org/1999/xlink" width="12px" height="12px" viewBox="5153 6021  12 12" xmlns="http://www.w3.org/2000/svg">
  <path d="M 5159 6021  C 5162.36 6021  5165 6023.64  5165 6027  C 5165 6030.36  5162.36 6033  5159 6033  C 5155.64 6033  5153 6030.36  5153 6027  C 5153 6023.64  5155.64 6021  5159 6021  Z " fill-rule="nonzero" fill="#f0f0f0" stroke="none" />
  <path d="M 5159 6021.5  C 5162.08 6021.5  5164.5 6023.92  5164.5 6027  C 5164.5 6030.08  5162.08 6032.5  5159 6032.5  C 5155.92 6032.5  5153.5 6030.08  5153.5 6027  C 5153.5 6023.92  5155.92 6021.5  5159 6021.5  Z " stroke-width="1" stroke="#797979" fill="none" />
  <path d="M 5159 6030  C 5157.32 6030  5156 6028.68  5156 6027  C 5156 6025.32  5157.32 6024  5159 6024  C 5160.68 6024  5162 6025.32  5162 6027  C 5162 6028.68  5160.68 6030  5159 6030  " fill-rule="nonzero" fill="#797979" stroke="none" />
</svg>