<?xml version="1.0" encoding="utf-8"?>
<svg version="1.1" xmlns:xlink="http://www.w3.org/1999/xlink" width="12px" height="12px" viewBox="799 597  12 12" xmlns="http://www.w3.org/2000/svg">
  <path d="M 805 597  C 808.36 597  811 599.64  811 603  C 811 606.36  808.36 609  805 609  C 801.64 609  799 606.36  799 603  C 799 599.64  801.64 597  805 597  Z " fill-rule="nonzero" fill="#ffffff" stroke="none" />
  <path d="M 805 597.5  C 808.08 597.5  810.5 599.92  810.5 603  C 810.5 606.08  808.08 608.5  805 608.5  C 801.92 608.5  799.5 606.08  799.5 603  C 799.5 599.92  801.92 597.5  805 597.5  Z " stroke-width="1" stroke="#797979" fill="none" />
  <path d="M 805 606  C 803.32 606  802 604.68  802 603  C 802 601.32  803.32 600  805 600  C 806.68 600  808 601.32  808 603  C 808 604.68  806.68 606  805 606  " fill-rule="nonzero" fill="#797979" stroke="none" />
</svg>