<?xml version="1.0" encoding="utf-8"?>
<svg version="1.1" xmlns:xlink="http://www.w3.org/1999/xlink" width="12px" height="12px" viewBox="5253 6021  12 12" xmlns="http://www.w3.org/2000/svg">
  <path d="M 5259 6021  C 5262.36 6021  5265 6023.64  5265 6027  C 5265 6030.36  5262.36 6033  5259 6033  C 5255.64 6033  5253 6030.36  5253 6027  C 5253 6023.64  5255.64 6021  5259 6021  Z " fill-rule="nonzero" fill="#f0f0f0" stroke="none" />
  <path d="M 5259 6021.5  C 5262.08 6021.5  5264.5 6023.92  5264.5 6027  C 5264.5 6030.08  5262.08 6032.5  5259 6032.5  C 5255.92 6032.5  5253.5 6030.08  5253.5 6027  C 5253.5 6023.92  5255.92 6021.5  5259 6021.5  Z " stroke-width="1" stroke="#797979" fill="none" />
  <path d="M 5259 6030  C 5257.32 6030  5256 6028.68  5256 6027  C 5256 6025.32  5257.32 6024  5259 6024  C 5260.68 6024  5262 6025.32  5262 6027  C 5262 6028.68  5260.68 6030  5259 6030  " fill-rule="nonzero" fill="#797979" stroke="none" />
</svg>