<?xml version="1.0" encoding="utf-8"?>
<svg version="1.1" xmlns:xlink="http://www.w3.org/1999/xlink" width="12px" height="12px" viewBox="5155 7170  12 12" xmlns="http://www.w3.org/2000/svg">
  <path d="M 5161 7170  C 5164.36 7170  5167 7172.64  5167 7176  C 5167 7179.36  5164.36 7182  5161 7182  C 5157.64 7182  5155 7179.36  5155 7176  C 5155 7172.64  5157.64 7170  5161 7170  Z " fill-rule="nonzero" fill="#f0f0f0" stroke="none" />
  <path d="M 5161 7170.5  C 5164.08 7170.5  5166.5 7172.92  5166.5 7176  C 5166.5 7179.08  5164.08 7181.5  5161 7181.5  C 5157.92 7181.5  5155.5 7179.08  5155.5 7176  C 5155.5 7172.92  5157.92 7170.5  5161 7170.5  Z " stroke-width="1" stroke="#797979" fill="none" />
  <path d="M 5161 7179  C 5159.32 7179  5158 7177.68  5158 7176  C 5158 7174.32  5159.32 7173  5161 7173  C 5162.68 7173  5164 7174.32  5164 7176  C 5164 7177.68  5162.68 7179  5161 7179  " fill-rule="nonzero" fill="#797979" stroke="none" />
</svg>