<?xml version="1.0" encoding="utf-8"?>
<svg version="1.1" xmlns:xlink="http://www.w3.org/1999/xlink" width="12px" height="12px" viewBox="5255 7170  12 12" xmlns="http://www.w3.org/2000/svg">
  <path d="M 5261 7170  C 5264.36 7170  5267 7172.64  5267 7176  C 5267 7179.36  5264.36 7182  5261 7182  C 5257.64 7182  5255 7179.36  5255 7176  C 5255 7172.64  5257.64 7170  5261 7170  Z " fill-rule="nonzero" fill="#ffffff" stroke="none" />
  <path d="M 5261 7170.5  C 5264.08 7170.5  5266.5 7172.92  5266.5 7176  C 5266.5 7179.08  5264.08 7181.5  5261 7181.5  C 5257.92 7181.5  5255.5 7179.08  5255.5 7176  C 5255.5 7172.92  5257.92 7170.5  5261 7170.5  Z " stroke-width="1" stroke="#797979" fill="none" />
  <path d="M 5261 7179  C 5259.32 7179  5258 7177.68  5258 7176  C 5258 7174.32  5259.32 7173  5261 7173  C 5262.68 7173  5264 7174.32  5264 7176  C 5264 7177.68  5262.68 7179  5261 7179  " fill-rule="nonzero" fill="#797979" stroke="none" />
</svg>