<?xml version="1.0" encoding="utf-8"?>
<svg version="1.1" xmlns:xlink="http://www.w3.org/1999/xlink" width="12px" height="12px" viewBox="801 1746  12 12" xmlns="http://www.w3.org/2000/svg">
  <path d="M 807 1746  C 810.36 1746  813 1748.64  813 1752  C 813 1755.36  810.36 1758  807 1758  C 803.64 1758  801 1755.36  801 1752  C 801 1748.64  803.64 1746  807 1746  Z " fill-rule="nonzero" fill="#f0f0f0" stroke="none" />
  <path d="M 807 1746.5  C 810.08 1746.5  812.5 1748.92  812.5 1752  C 812.5 1755.08  810.08 1757.5  807 1757.5  C 803.92 1757.5  801.5 1755.08  801.5 1752  C 801.5 1748.92  803.92 1746.5  807 1746.5  Z " stroke-width="1" stroke="#797979" fill="none" />
  <path d="M 807 1755  C 805.32 1755  804 1753.68  804 1752  C 804 1750.32  805.32 1749  807 1749  C 808.68 1749  810 1750.32  810 1752  C 810 1753.68  808.68 1755  807 1755  " fill-rule="nonzero" fill="#797979" stroke="none" />
</svg>