<?xml version="1.0" encoding="utf-8"?>
<svg version="1.1" xmlns:xlink="http://www.w3.org/1999/xlink" width="12px" height="12px" viewBox="5153 7328  12 12" xmlns="http://www.w3.org/2000/svg">
  <path d="M 5159 7328  C 5162.36 7328  5165 7330.64  5165 7334  C 5165 7337.36  5162.36 7340  5159 7340  C 5155.64 7340  5153 7337.36  5153 7334  C 5153 7330.64  5155.64 7328  5159 7328  Z " fill-rule="nonzero" fill="#f0f0f0" stroke="none" />
  <path d="M 5159 7328.5  C 5162.08 7328.5  5164.5 7330.92  5164.5 7334  C 5164.5 7337.08  5162.08 7339.5  5159 7339.5  C 5155.92 7339.5  5153.5 7337.08  5153.5 7334  C 5153.5 7330.92  5155.92 7328.5  5159 7328.5  Z " stroke-width="1" stroke="#797979" fill="none" />
  <path d="M 5159 7337  C 5157.32 7337  5156 7335.68  5156 7334  C 5156 7332.32  5157.32 7331  5159 7331  C 5160.68 7331  5162 7332.32  5162 7334  C 5162 7335.68  5160.68 7337  5159 7337  " fill-rule="nonzero" fill="#797979" stroke="none" />
</svg>