<?xml version="1.0" encoding="utf-8"?>
<svg version="1.1" xmlns:xlink="http://www.w3.org/1999/xlink" width="12px" height="12px" viewBox="799 1904  12 12" xmlns="http://www.w3.org/2000/svg">
  <path d="M 805 1904  C 808.36 1904  811 1906.64  811 1910  C 811 1913.36  808.36 1916  805 1916  C 801.64 1916  799 1913.36  799 1910  C 799 1906.64  801.64 1904  805 1904  Z " fill-rule="nonzero" fill="#ffffff" stroke="none" />
  <path d="M 805 1904.5  C 808.08 1904.5  810.5 1906.92  810.5 1910  C 810.5 1913.08  808.08 1915.5  805 1915.5  C 801.92 1915.5  799.5 1913.08  799.5 1910  C 799.5 1906.92  801.92 1904.5  805 1904.5  Z " stroke-width="1" stroke="#797979" fill="none" />
  <path d="M 805 1913  C 803.32 1913  802 1911.68  802 1910  C 802 1908.32  803.32 1907  805 1907  C 806.68 1907  808 1908.32  808 1910  C 808 1911.68  806.68 1913  805 1913  " fill-rule="nonzero" fill="#797979" stroke="none" />
</svg>